<?xml version="1.0" encoding="UTF-8"?>
<svg version="1.1" xmlns="http://www.w3.org/2000/svg" width="1024" height="1024">
<path d="M0 0 C2.29557219 0.02355512 4.59113427 0.04227093 6.88676143 0.05955458 C45.03141155 0.36417684 81.78845518 7.59053186 111.1212604 33.73498869 C111.97204165 34.45428556 112.8228229 35.17358244 113.6993854 35.91467619 C119.94469456 41.29790279 125.12123419 47.19069826 130.1212604 53.73498869 C130.69231509 54.45557463 131.26336978 55.17616056 131.85172915 55.91858244 C151.49233742 82.09050936 157.86106236 112.27876628 158.67545962 144.24841642 C158.70690306 145.42740297 158.70690306 145.42740297 158.73898172 146.63020742 C159.16714494 162.85117349 159.26969786 179.06525666 159.25544691 195.29105496 C159.25354993 198.36858178 159.25536428 201.44610267 159.2571227 204.52362925 C159.26274316 214.43165268 159.25672375 224.33965173 159.24827027 234.2476716 C159.24557687 237.66466019 159.24375121 241.081649 159.24193937 244.49863815 C159.2198514 285.59756337 159.19269992 326.69803112 158.83167148 367.79557753 C158.80900729 370.57966096 158.79143377 373.36373229 158.77537417 376.147861 C158.56124972 411.33086507 158.56124972 411.33086507 155.1212604 426.73498869 C154.89781703 427.74168859 154.89781703 427.74168859 154.66985965 428.76872587 C149.41433677 452.1431054 138.06031422 472.0416365 122.1212604 489.73498869 C121.50766665 490.48006681 120.8940729 491.22514494 120.2618854 491.99280119 C115.53946987 497.72716291 110.0008547 502.22430757 104.1212604 506.73498869 C103.59113345 507.14539396 103.0610065 507.55579924 102.51481509 507.97864103 C93.60615562 514.81950107 84.33803852 520.09295349 74.1212604 524.73498869 C72.52604556 525.46008635 72.52604556 525.46008635 70.89860415 526.19983244 C55.25405784 532.98119705 39.21149762 536.60330992 22.22042727 537.31587553 C21.27268772 537.35678149 20.32494816 537.39768745 19.34848922 537.43983299 C7.39127453 537.90473728 -4.56422158 537.8189668 -16.52790952 537.75329924 C-19.12410903 537.74316785 -21.72031078 537.73359673 -24.31651425 537.72453642 C-29.14759375 537.70733129 -33.97865905 537.68822428 -38.80972163 537.6667842 C-48.29310033 537.62479273 -57.77647685 537.59705639 -67.2599194 537.57429838 C-68.76129166 537.57062967 -70.26266389 537.56695552 -71.76403612 537.56327599 C-74.03732588 537.55772445 -76.31061568 537.55218966 -78.58390557 537.54669436 C-87.10739882 537.52607727 -95.6308886 537.50435613 -104.15437436 537.4808383 C-104.93156083 537.47869893 -105.70874729 537.47655957 -106.50948486 537.47435538 C-119.13955566 537.43901193 -131.76949467 537.38542634 -144.39947315 537.32620742 C-157.41455574 537.26570442 -170.42956815 537.22822275 -183.44478041 537.21112806 C-191.44931788 537.19982543 -199.4533581 537.17028123 -207.45772711 537.11684338 C-213.58543242 537.07777475 -219.71280719 537.07038493 -225.84062696 537.07463598 C-228.34681282 537.07139469 -230.85301025 537.05788914 -233.35907674 537.03321409 C-236.78785975 537.00098056 -240.2146941 537.00610271 -243.64355588 537.02019072 C-244.62760929 537.00203155 -245.6116627 536.98387238 -246.62553591 536.96516293 C-254.31589145 537.05870535 -259.44271427 539.69597329 -265.8787396 543.73498869 C-267.39633491 544.60912407 -268.91662134 545.47862952 -270.4412396 546.34045744 C-271.92121422 547.19974446 -273.40036475 548.06045221 -274.8787396 548.92248869 C-276.52196204 549.87692734 -278.16519142 550.83135406 -279.8084271 551.78576994 C-280.6408392 552.26997404 -281.47325131 552.75417814 -282.33088803 553.2530551 C-286.55313387 555.70888417 -290.7780988 558.16000717 -295.0037396 560.60998869 C-295.76041928 561.0498007 -296.51709897 561.48961271 -297.29670835 561.94275236 C-301.83654847 564.57547931 -306.40697654 567.1357486 -311.02668881 569.62610197 C-313.02879324 570.72274983 -313.02879324 570.72274983 -314.8787396 572.73498869 C-316.73698548 573.68515973 -318.61635263 574.5941053 -320.5037396 575.48498869 C-327.41155761 578.83589289 -334.01433379 582.65466787 -340.6287396 586.54748869 C-342.70942874 587.76891103 -344.79015773 588.9902655 -346.8709271 590.21155119 C-347.88380795 590.80613127 -348.89668881 591.40071135 -349.94026303 592.013309 C-376.01841426 607.29273094 -376.01841426 607.29273094 -384.6912396 606.29748869 C-388.7059894 604.32947408 -390.49501703 602.52090099 -392.8787396 598.73498869 C-394.10648142 592.39562214 -393.7014433 586.65103269 -392.98249936 580.26745939 C-392.87535611 579.25019773 -392.76821286 578.23293608 -392.65782285 577.18484831 C-392.30374269 573.84252261 -391.93692057 570.50172426 -391.57014585 567.16076994 C-391.32122297 564.83014889 -391.07318419 562.49943325 -390.82598996 560.16862822 C-390.17459901 554.04592293 -389.51274642 547.92439601 -388.84822202 541.80310392 C-387.78541161 531.99553791 -386.73897112 522.18621038 -385.69168019 512.37697744 C-385.32464158 508.9527126 -384.95343745 505.52891947 -384.58151364 502.10518217 C-384.35573158 500.00824034 -384.13001495 497.91129146 -383.90437436 495.81433439 C-383.79994519 494.86305159 -383.69551602 493.91176878 -383.58792233 492.93165922 C-383.49392148 492.052861 -383.39992063 491.17406279 -383.30307126 490.26863432 C-383.22065466 489.50932773 -383.13823806 488.75002113 -383.05332398 487.96770525 C-382.62074513 482.43556124 -382.91000317 480.11501193 -386.4412396 475.67248869 C-398.58643043 459.57850998 -406.60993216 440.66140502 -409.8787396 420.73498869 C-410.0437396 419.73236998 -410.2087396 418.72975126 -410.3787396 417.69675016 C-412.24007048 404.78083714 -412.23099562 391.91260103 -412.2928021 378.88342619 C-412.31173089 376.31297601 -412.33140401 373.74253122 -412.35176206 371.17209196 C-412.3991501 364.97020644 -412.43596395 358.76830233 -412.46866131 352.56632364 C-412.49538762 347.52750826 -412.52611309 342.48873104 -412.55934262 337.44995451 C-412.83107339 296.05894098 -412.97756443 254.66748166 -413.00122952 213.2755847 C-413.00371517 209.52187758 -413.00766979 205.76817423 -413.01185727 202.01446867 C-413.12505165 84.15908777 -413.12505165 84.15908777 -375.8787396 43.73498869 C-375.01635678 42.79010588 -374.15397397 41.84522306 -373.26545835 40.87170744 C-365.40831526 32.64207757 -356.17331413 24.72702135 -345.8787396 19.73498869 C-345.2187396 19.07498869 -344.5587396 18.41498869 -343.8787396 17.73498869 C-340.74793595 16.13098461 -337.48953823 14.8002123 -334.2537396 13.42248869 C-333.31038754 13.02022062 -332.36703549 12.61795256 -331.39509702 12.20349455 C-313.62695019 4.75340238 -296.1956133 0.60677535 -276.87973142 0.57004118 C-275.44558571 0.56157587 -275.44558571 0.56157587 -273.98246735 0.55293953 C-270.80279545 0.5353525 -267.62313863 0.52455722 -264.44343686 0.51379728 C-262.14988633 0.50256586 -259.85633774 0.49093295 -257.56279111 0.47893095 C-251.32922195 0.44763271 -245.0956421 0.42246026 -238.86204004 0.39873409 C-232.93012781 0.37555115 -226.99823267 0.34870445 -221.06633436 0.3222328 C-208.51936435 0.26648809 -195.97237556 0.21689592 -183.42537265 0.16922779 C-172.83777868 0.12883745 -162.25022482 0.08250153 -151.66267514 0.03186369 C-43.98549652 -0.48111604 -43.98549652 -0.48111604 0 0 Z M-173.8787396 56.73498869 C-175.3355521 56.90825854 -176.79815326 57.03346253 -178.2615521 57.13733244 C-213.54085468 60.38723625 -248.67426218 79.55010987 -273.8787396 103.73498869 C-275.29026303 105.05176603 -275.29026303 105.05176603 -276.7303021 106.39514494 C-290.23826323 119.22561837 -300.13480267 134.37233062 -308.8787396 150.73498869 C-309.24451108 151.41577482 -309.61028256 152.09656096 -309.98713803 152.79797697 C-331.97648261 194.49514257 -336.97308071 243.54742223 -334.1287396 289.92248869 C-334.08617032 290.61686033 -334.04360105 291.31123198 -333.99974179 292.02664518 C-331.7680056 327.25306935 -323.79253085 361.16000604 -307.8787396 392.73498869 C-304.79250169 393.05408174 -304.79250169 393.05408174 -302.70222592 390.93078947 C-301.88004575 390.10562834 -301.05786557 389.28046721 -300.21077085 388.43030119 C-299.31809506 387.53698088 -298.42541928 386.64366056 -297.50569272 385.72326994 C-297.04428891 385.25356779 -296.5828851 384.78386564 -296.10749936 384.2999301 C-294.69489049 382.86370063 -293.2694064 381.4412803 -291.84163022 380.02014494 C-287.05692081 376.01256636 -287.05692081 376.01256636 -284.8787396 370.73498869 C-283.8887396 370.40498869 -282.8987396 370.07498869 -281.8787396 369.73498869 C-280.23057289 368.14697343 -280.23057289 368.14697343 -278.6287396 366.17248869 C-277.71221616 365.09354338 -277.71221616 365.09354338 -276.7771771 363.99280119 C-276.15069272 363.24772306 -275.52420835 362.50264494 -274.8787396 361.73498869 C-265.09223459 350.365985 -265.09223459 350.365985 -260.5037396 346.98498869 C-258.19265737 343.78502869 -258.85806581 341.44522694 -259.42170835 337.66076994 C-259.69990612 335.73891544 -259.69990612 335.73891544 -260.8787396 334.73498869 C-261.10798482 332.94952104 -261.33139907 331.1632117 -261.5349896 329.37463713 C-261.9433691 326.2387002 -262.48398066 323.13811262 -263.0349896 320.02405119 C-265.45830393 306.26382464 -267.70881647 292.73476615 -267.8787396 278.73498869 C-267.9072601 277.54945402 -267.9072601 277.54945402 -267.93635678 276.33996916 C-269.09250853 227.52572606 -259.28545745 177.90906965 -225.24202085 141.10217619 C-205.94916262 121.77742894 -179.88264416 109.97847443 -152.8787396 106.73498869 C-151.97639585 106.62412931 -151.0740521 106.51326994 -150.1443646 106.39905119 C-122.49438077 103.57294787 -93.85128075 106.72479763 -69.15730405 119.9639926 C-64.85110415 122.29262634 -64.85110415 122.29262634 -60.1053021 122.27795744 C-57.49153657 120.46666378 -55.62247023 118.53837076 -53.5662396 116.10998869 C-50.72120742 112.82617046 -47.85920187 109.6491207 -44.7537396 106.60998869 C-41.59603885 103.50201552 -38.69192987 100.25818469 -35.8240521 96.88342619 C-32.66292628 93.39222298 -29.18095605 90.22585918 -25.7224896 87.03186369 C-23.62466948 84.961752 -23.62466948 84.961752 -24.05793881 82.72571135 C-25.51626442 79.18877291 -29.23591974 77.99354511 -32.5037396 76.35998869 C-33.2742767 75.96642179 -34.04481381 75.5728549 -34.83870053 75.16736174 C-59.4781417 62.78434625 -150.76047808 33.61672717 -173.8787396 56.73498869 Z M21.1212604 121.73498869 C19.68694819 123.15586535 19.68694819 123.15586535 18.17985415 125.05530119 C13.05844123 131.0809615 7.35965983 136.52879184 1.70890689 142.05139494 C0.29131237 143.4389787 -1.11999865 144.83297287 -2.53108335 146.22717619 C-3.36631528 147.04556974 -4.20154721 147.8639633 -5.0620892 148.70715666 C-7.10115916 150.52950439 -7.10115916 150.52950439 -6.8787396 152.73498869 C-7.5181146 153.00311369 -8.1574896 153.27123869 -8.8162396 153.54748869 C-11.21005646 154.62166621 -11.21005646 154.62166621 -11.8787396 157.73498869 C-13.3637396 158.22998869 -13.3637396 158.22998869 -14.8787396 158.73498869 C-17.73267438 160.83886633 -17.73267438 160.83886633 -19.8787396 163.73498869 C-19.57697749 168.11053924 -18.23966855 171.36933019 -16.2537396 175.23498869 C-7.96531786 192.82552403 -4.02934101 211.65068876 -0.8787396 230.73498869 C-0.68755551 231.85864836 -0.68755551 231.85864836 -0.49250913 233.00500822 C7.57525011 281.71125753 1.8858928 341.31736438 -26.8787396 382.73498869 C-29.72561916 386.5489192 -32.7313845 390.16654663 -35.8787396 393.73498869 C-36.70245053 394.6798715 -37.52616147 395.62475431 -38.37483335 396.59826994 C-44.52940499 403.56032139 -44.52940499 403.56032139 -46.8787396 404.73498869 C-46.8787396 405.39498869 -46.8787396 406.05498869 -46.8787396 406.73498869 C-47.73725522 407.1352426 -47.73725522 407.1352426 -48.6131146 407.54358244 C-50.9733387 408.78473477 -52.98532548 410.21241147 -55.1287396 411.79748869 C-76.61338129 426.83986519 -100.63540803 434.68525543 -126.8787396 435.73498869 C-128.3946771 435.79686369 -128.3946771 435.79686369 -129.9412396 435.85998869 C-155.41604221 436.36948474 -179.52922997 429.8753237 -201.67170835 417.46936369 C-204.37466794 416.00759261 -207.00107818 414.79717633 -209.8787396 413.73498869 C-204.12591791 406.0043208 -198.36345191 398.28832791 -192.3787396 390.73498869 C-187.91809586 385.10274059 -183.58550411 379.38372809 -179.28889585 373.62561369 C-176.18531247 369.46874165 -173.05030589 365.34026411 -169.8787396 361.23498869 C-164.60667609 354.40584704 -159.43459708 347.50364434 -154.26887631 340.59387541 C-152.3082733 337.97216284 -150.34354876 335.35354991 -148.3787396 332.73498869 C-147.66073178 331.77721525 -146.94272397 330.81944181 -146.20295835 329.83264494 C-144.51968246 327.58922011 -142.83474763 325.34709765 -141.14827085 323.10608244 C-132.12189257 311.10369242 -123.2151801 299.01436376 -114.33577085 286.90295744 C-108.18244226 278.51840804 -101.97050752 270.18739482 -95.63459897 261.93982267 C-90.4977634 255.25208197 -85.43822834 248.50802963 -80.3889935 241.75403166 C-77.76419729 238.24496851 -75.13361053 234.74024917 -72.5037396 231.23498869 C-71.55840148 229.97459123 -70.61308811 228.71417522 -69.6678021 227.45373869 C-66.7381146 223.54748869 -63.8084271 219.64123869 -60.8787396 215.73498869 C-61.2087396 215.07498869 -61.5387396 214.41498869 -61.8787396 213.73498869 C-62.90312415 214.73135056 -63.92296673 215.73238156 -64.9412396 216.73498869 C-65.50971616 217.29186369 -66.07819272 217.84873869 -66.66389585 218.42248869 C-68.54811628 220.38978763 -70.32260471 222.39707047 -72.0974896 224.46155119 C-76.63066786 229.67860628 -81.57752909 234.45090589 -86.53303647 239.26233244 C-87.22332944 239.94166838 -87.91362241 240.62100431 -88.62483335 241.32092619 C-89.25059262 241.92984709 -89.8763519 242.53876799 -90.52107358 243.16614103 C-92.09686604 244.64125441 -92.09686604 244.64125441 -91.8787396 246.73498869 C-92.8687396 247.06498869 -93.8587396 247.39498869 -94.8787396 247.73498869 C-96.25277122 249.09054637 -96.25277122 249.09054637 -97.6287396 250.85998869 C-104.42443275 258.89523961 -112.18401597 266.10592554 -119.67170835 273.48889494 C-121.4193045 275.267422 -123.0211202 277.03433962 -124.5662396 278.98498869 C-126.8787396 281.73498869 -126.8787396 281.73498869 -128.8787396 282.73498869 C-128.8787396 283.39498869 -128.8787396 284.05498869 -128.8787396 284.73498869 C-129.47170835 284.99022306 -130.0646771 285.24545744 -130.6756146 285.50842619 C-133.10548449 286.8612261 -134.37110226 288.21840144 -136.1287396 290.35998869 C-140.43981943 295.45239429 -145.15799277 300.06636345 -149.9178021 304.73498869 C-153.10256554 307.88286298 -156.19225379 311.04478679 -159.0974896 314.45373869 C-164.69739372 320.95521468 -170.95322637 326.86364963 -177.05403256 332.88977385 C-184.43240072 340.11388937 -184.43240072 340.11388937 -191.38264585 347.74280119 C-194.35629753 351.23404474 -197.55438238 354.47236598 -200.81233335 357.69592619 C-201.33965055 358.21773466 -201.86696774 358.73954313 -202.41026425 359.27716398 C-204.60611839 361.44525822 -206.80567824 363.6095134 -209.00935483 365.76965666 C-210.63548878 367.36577768 -212.25549854 368.96791192 -213.87483335 370.57092619 C-214.62935033 371.30525373 -214.62935033 371.30525373 -215.39911008 372.05441618 C-216.59735952 373.24382406 -217.74357323 374.48523265 -218.8787396 375.73498869 C-218.8787396 376.39498869 -218.8787396 377.05498869 -218.8787396 377.73498869 C-219.45591733 377.97443205 -220.03309506 378.21387541 -220.62776303 378.46057463 C-223.3375139 379.99472859 -224.87151386 381.75909789 -226.8943646 384.12561369 C-230.35088095 388.0633813 -233.89547038 391.84432186 -237.6131146 395.53186369 C-238.10420712 396.019653 -238.59529965 396.5074423 -239.10127378 397.0100131 C-240.60844527 398.50369377 -242.11813629 399.99477926 -243.6287396 401.48498869 C-245.64738302 403.47675952 -247.66247266 405.4720342 -249.6756146 407.46936369 C-250.55572202 408.33786955 -251.43582944 409.20637541 -252.34260678 410.10119963 C-255.01606224 412.87759908 -257.42989672 415.76016467 -259.8787396 418.73498869 C-261.5242783 420.42251881 -263.19153087 422.08912045 -264.8787396 423.73498869 C-265.84490731 424.69850665 -266.809708 425.66339698 -267.77327085 426.62951994 C-271.82600522 430.68225431 -271.82600522 430.68225431 -275.8787396 434.73498869 C-252.76849677 465.32207478 -205.32553433 481.20661077 -168.9256146 486.67248869 C-111.91778183 494.56714609 -54.70097487 485.3742503 -7.89778256 450.31262541 C-2.56302387 446.14415979 2.30164017 441.47953696 7.1212604 436.73498869 C7.99911197 435.88420744 8.87696353 435.03342619 9.78141665 434.15686369 C15.3116301 428.76121315 15.3116301 428.76121315 20.1212604 422.73498869 C20.1212604 422.07498869 20.1212604 421.41498869 20.1212604 420.73498869 C20.7812604 420.73498869 21.4412604 420.73498869 22.1212604 420.73498869 C39.36577288 401.18560901 50.36249715 375.30386442 57.5587604 350.54748869 C57.80593814 349.69880217 58.05311587 348.85011564 58.30778384 347.97571135 C59.62436134 343.22307316 60.41173743 338.66318791 60.86198306 333.75647306 C61.22291383 330.94243659 62.20078426 328.41305323 63.1212604 325.73498869 C63.75041718 322.68865915 64.21916318 319.62267981 64.6837604 316.54748869 C64.809444 315.76051603 64.93512759 314.97354338 65.06461978 314.16272306 C66.60431031 304.22325489 67.27482917 294.38303458 67.2540729 284.32873869 C67.25502963 283.28278532 67.25598636 282.23683195 67.25697207 281.15918303 C67.25764768 278.96423612 67.25583699 276.76928714 67.2516315 274.57434416 C67.24627447 271.24373144 67.25159774 267.91325354 67.25797915 264.58264494 C67.25731826 262.43550923 67.25603687 260.2883736 67.2540729 258.14123869 C67.25710925 256.67043852 67.25710925 256.67043852 67.26020694 255.16992521 C68.02504658 244.28027683 68.02504658 244.28027683 65.1212604 234.73498869 C65.15606509 233.10110197 65.15606509 233.10110197 65.1915729 231.43420744 C65.25556452 225.67368199 64.10879597 220.18001178 62.9962604 214.54748869 C62.7703522 213.40054533 62.544444 212.25360197 62.31169009 211.07190275 C55.82452679 179.07980466 43.84465897 147.34412521 23.1212604 121.73498869 C22.4612604 121.73498869 21.8012604 121.73498869 21.1212604 121.73498869 Z M-58.8787396 209.73498869 C-57.8787396 211.73498869 -57.8787396 211.73498869 -57.8787396 211.73498869 Z " fill="#118DFE" transform="translate(632.8787395954132,205.2650113105774)"/>
<path d="M0 0 C0.33 0 0.66 0 1 0 C1.00173625 0.58362791 1.0034725 1.16725581 1.00526136 1.76856941 C1.10818378 36.32281259 1.2162733 70.87703563 1.33111694 105.43124127 C1.3448873 109.57582413 1.35861428 113.72040714 1.37231445 117.86499023 C1.37504276 118.6901376 1.37777106 119.51528497 1.38058204 120.3654368 C1.42471395 133.74399667 1.46532793 147.12256504 1.50465261 160.50113981 C1.54505065 174.21837823 1.58920414 187.9356008 1.63687855 201.65281588 C1.66620092 210.12401254 1.69255816 218.59520796 1.71517897 227.06642521 C1.73094944 232.86741745 1.75035203 238.66839028 1.77266841 244.469361 C1.78545431 247.8213047 1.79604719 251.17321826 1.80341911 254.52518082 C1.81164323 258.15072696 1.8259092 261.77619865 1.84178162 265.40171814 C1.84324878 267.00820147 1.84324878 267.00820147 1.84474558 268.64713901 C1.85295724 270.09225135 1.85295724 270.09225135 1.8613348 271.56655788 C1.86532186 272.82362204 1.86532186 272.82362204 1.86938947 274.10608143 C1.79248567 276.01141319 1.79248567 276.01141319 3 277 C3.07325168 279.86267567 3.09238205 282.700719 3.0625 285.5625 C3.05573242 286.77196289 3.05573242 286.77196289 3.04882812 288.00585938 C3.03700518 290.00393756 3.01906914 292.00197783 3 294 C2.67 294 2.34 294 2 294 C-0.27477817 280.06359841 -0.34721911 266.23942446 -0.4140625 252.1484375 C-0.43299129 249.57798732 -0.45266441 247.00754253 -0.47302246 244.43710327 C-0.52041051 238.23521775 -0.55722435 232.03331364 -0.58992171 225.83133495 C-0.61664803 220.79251957 -0.64737349 215.75374235 -0.68060303 210.71496582 C-0.9523338 169.32395229 -1.09882484 127.93249298 -1.12248993 86.54059601 C-1.12497557 82.78688889 -1.12893019 79.03318554 -1.13311768 75.27947998 C-1.15736552 50.17046326 -1.17545213 25.08669661 0 0 Z " fill="#1B8AF3" transform="translate(221,332)"/>
<path d="M0 0 C0.33 0 0.66 0 1 0 C1.02887814 3.47914941 1.04675687 6.95826831 1.0625 10.4375 C1.07087891 11.43072266 1.07925781 12.42394531 1.08789062 13.44726562 C1.09111328 14.39150391 1.09433594 15.33574219 1.09765625 16.30859375 C1.10289307 17.18314209 1.10812988 18.05769043 1.11352539 18.95874023 C1 21 1 21 0 22 C-0.28101946 24.31952569 -0.44782625 26.63885514 -0.62109375 28.96875 C-0.74613281 29.6390625 -0.87117187 30.309375 -1 31 C-1.66 31.33 -2.32 31.66 -3 32 C-2.01 21.44 -1.02 10.88 0 0 Z " fill="#1B8DF7" transform="translate(247,719)"/>
<path d="" fill="#1890FE" transform="translate(0,0)"/>
<path d="M0 0 C3 1 3 1 3 1 Z " fill="#188EFE" transform="translate(483,260)"/>
<path d="M0 0 C3 1 3 1 3 1 Z " fill="#1789F4" transform="translate(685,208)"/>
<path d="M0 0 C2 1 2 1 2 1 Z " fill="#2182DB" transform="translate(240,807)"/>
<path d="" fill="#2089F0" transform="translate(0,0)"/>
<path d="M0 0 C2 1 2 1 2 1 Z " fill="#1990FA" transform="translate(533,639)"/>
<path d="" fill="#228AEE" transform="translate(0,0)"/>
<path d="" fill="#218CEE" transform="translate(0,0)"/>
<path d="" fill="#1F8CF0" transform="translate(0,0)"/>
<path d="" fill="#1F8AEE" transform="translate(0,0)"/>
<path d="" fill="#1E8AEE" transform="translate(0,0)"/>
<path d="M0 0 C2 1 2 1 2 1 Z " fill="#1B90FC" transform="translate(688,551)"/>
<path d="" fill="#1F8BEF" transform="translate(0,0)"/>
<path d="" fill="#1F89F0" transform="translate(0,0)"/>
<path d="" fill="#1C90FB" transform="translate(0,0)"/>
<path d="" fill="#1B92FE" transform="translate(0,0)"/>
<path d="" fill="#1E8BEE" transform="translate(0,0)"/>
<path d="M0 0 C2 1 2 1 2 1 Z " fill="#1A91FE" transform="translate(673,360)"/>
<path d="M0 0 C2 1 2 1 2 1 Z " fill="#1890FF" transform="translate(667,350)"/>
<path d="M0 0 C2 1 2 1 2 1 Z " fill="#1A90FE" transform="translate(489,260)"/>
<path d="M0 0 C2 1 2 1 2 1 Z " fill="#188BF5" transform="translate(709,216)"/>
<path d="M0 0 C2 1 2 1 2 1 Z " fill="#1B89F2" transform="translate(418,204)"/>
<path d="" fill="#303034" transform="translate(0,0)"/>
<path d="" fill="#282C2E" transform="translate(0,0)"/>
<path d="" fill="#282C30" transform="translate(0,0)"/>
<path d="" fill="#403F3F" transform="translate(0,0)"/>
<path d="" fill="#2C2F34" transform="translate(0,0)"/>
<path d="" fill="#383838" transform="translate(0,0)"/>
<path d="" fill="#353A41" transform="translate(0,0)"/>
<path d="" fill="#297DD0" transform="translate(0,0)"/>
<path d="" fill="#2780D9" transform="translate(0,0)"/>
<path d="" fill="#2885E1" transform="translate(0,0)"/>
<path d="" fill="#2084EF" transform="translate(0,0)"/>
<path d="" fill="#1F89F3" transform="translate(0,0)"/>
<path d="" fill="#1F8AF0" transform="translate(0,0)"/>
<path d="" fill="#1C8BF0" transform="translate(0,0)"/>
<path d="" fill="#218AF1" transform="translate(0,0)"/>
<path d="" fill="#1F89EE" transform="translate(0,0)"/>
<path d="" fill="#1B8AF8" transform="translate(0,0)"/>
<path d="" fill="#1F88EE" transform="translate(0,0)"/>
<path d="" fill="#1A8BF9" transform="translate(0,0)"/>
<path d="" fill="#1C8DF6" transform="translate(0,0)"/>
<path d="" fill="#2387EB" transform="translate(0,0)"/>
<path d="" fill="#178AF1" transform="translate(0,0)"/>
<path d="" fill="#188BF4" transform="translate(0,0)"/>
<path d="" fill="#1589F4" transform="translate(0,0)"/>
<path d="" fill="#168CF6" transform="translate(0,0)"/>
<path d="" fill="#1A88F0" transform="translate(0,0)"/>
<path d="" fill="#1B87F0" transform="translate(0,0)"/>
<path d="" fill="#1B8BF3" transform="translate(0,0)"/>
<path d="" fill="#2189EE" transform="translate(0,0)"/>
<path d="" fill="#208AF2" transform="translate(0,0)"/>
<path d="" fill="#208BF0" transform="translate(0,0)"/>
<path d="" fill="#1992FB" transform="translate(0,0)"/>
<path d="" fill="#1992FB" transform="translate(0,0)"/>
<path d="" fill="#1C8AF1" transform="translate(0,0)"/>
<path d="" fill="#178DF9" transform="translate(0,0)"/>
<path d="" fill="#188FFC" transform="translate(0,0)"/>
<path d="" fill="#1F8BF3" transform="translate(0,0)"/>
<path d="" fill="#1A90FF" transform="translate(0,0)"/>
<path d="" fill="#1693FC" transform="translate(0,0)"/>
<path d="" fill="#1C91FC" transform="translate(0,0)"/>
<path d="" fill="#1990FE" transform="translate(0,0)"/>
<path d="" fill="#228CF1" transform="translate(0,0)"/>
<path d="" fill="#1D89F3" transform="translate(0,0)"/>
<path d="" fill="#228CF4" transform="translate(0,0)"/>
<path d="" fill="#1C91FE" transform="translate(0,0)"/>
<path d="" fill="#1F92FD" transform="translate(0,0)"/>
<path d="" fill="#1890FF" transform="translate(0,0)"/>
<path d="" fill="#1F8CF3" transform="translate(0,0)"/>
<path d="" fill="#1C91FF" transform="translate(0,0)"/>
<path d="" fill="#1C8CF3" transform="translate(0,0)"/>
<path d="" fill="#1A8AF3" transform="translate(0,0)"/>
<path d="" fill="#1B8BF2" transform="translate(0,0)"/>
<path d="" fill="#1B8CF1" transform="translate(0,0)"/>
<path d="" fill="#2289EF" transform="translate(0,0)"/>
<path d="" fill="#1F8AF1" transform="translate(0,0)"/>
<path d="" fill="#1D92FC" transform="translate(0,0)"/>
<path d="" fill="#1F88EE" transform="translate(0,0)"/>
<path d="" fill="#1D8AF0" transform="translate(0,0)"/>
<path d="" fill="#2289F0" transform="translate(0,0)"/>
<path d="" fill="#1C91FF" transform="translate(0,0)"/>
<path d="" fill="#188DFD" transform="translate(0,0)"/>
<path d="" fill="#1792FE" transform="translate(0,0)"/>
<path d="" fill="#208AEF" transform="translate(0,0)"/>
<path d="" fill="#1B91FD" transform="translate(0,0)"/>
<path d="" fill="#1C91FD" transform="translate(0,0)"/>
<path d="" fill="#1B90FE" transform="translate(0,0)"/>
<path d="" fill="#1E89EF" transform="translate(0,0)"/>
<path d="" fill="#1C8FFD" transform="translate(0,0)"/>
<path d="" fill="#158EFC" transform="translate(0,0)"/>
<path d="" fill="#158EFE" transform="translate(0,0)"/>
<path d="" fill="#188FFF" transform="translate(0,0)"/>
<path d="" fill="#1893FF" transform="translate(0,0)"/>
<path d="" fill="#1F8AEE" transform="translate(0,0)"/>
<path d="" fill="#1A92FD" transform="translate(0,0)"/>
<path d="" fill="#1A91FC" transform="translate(0,0)"/>
<path d="" fill="#1C90FE" transform="translate(0,0)"/>
<path d="" fill="#1F8AEF" transform="translate(0,0)"/>
<path d="" fill="#1891FD" transform="translate(0,0)"/>
<path d="" fill="#1D8FFD" transform="translate(0,0)"/>
<path d="" fill="#1E88EE" transform="translate(0,0)"/>
<path d="" fill="#198DFB" transform="translate(0,0)"/>
<path d="" fill="#198EFD" transform="translate(0,0)"/>
<path d="" fill="#1A8EFC" transform="translate(0,0)"/>
<path d="" fill="#1D91FE" transform="translate(0,0)"/>
<path d="" fill="#1A8EFC" transform="translate(0,0)"/>
<path d="" fill="#1F8AEF" transform="translate(0,0)"/>
<path d="" fill="#1F89F0" transform="translate(0,0)"/>
<path d="" fill="#1791F9" transform="translate(0,0)"/>
<path d="" fill="#1D89EF" transform="translate(0,0)"/>
<path d="" fill="#1A8FFB" transform="translate(0,0)"/>
<path d="" fill="#1A91FF" transform="translate(0,0)"/>
<path d="" fill="#1A90FE" transform="translate(0,0)"/>
<path d="" fill="#198DFD" transform="translate(0,0)"/>
<path d="" fill="#1991FB" transform="translate(0,0)"/>
<path d="" fill="#208BEF" transform="translate(0,0)"/>
<path d="" fill="#1B8FFD" transform="translate(0,0)"/>
<path d="" fill="#1A91FF" transform="translate(0,0)"/>
<path d="" fill="#1A8FFB" transform="translate(0,0)"/>
<path d="" fill="#1A90FB" transform="translate(0,0)"/>
<path d="" fill="#1891FE" transform="translate(0,0)"/>
<path d="" fill="#1B90FE" transform="translate(0,0)"/>
<path d="" fill="#1991FF" transform="translate(0,0)"/>
<path d="" fill="#1D92FA" transform="translate(0,0)"/>
<path d="" fill="#1E89F1" transform="translate(0,0)"/>
<path d="" fill="#1B90FD" transform="translate(0,0)"/>
<path d="" fill="#1D8DEF" transform="translate(0,0)"/>
<path d="" fill="#1990FE" transform="translate(0,0)"/>
<path d="" fill="#1891FE" transform="translate(0,0)"/>
<path d="" fill="#1F8BEE" transform="translate(0,0)"/>
<path d="" fill="#188EF9" transform="translate(0,0)"/>
<path d="" fill="#1E91FE" transform="translate(0,0)"/>
<path d="" fill="#1A90FE" transform="translate(0,0)"/>
<path d="" fill="#1A93FE" transform="translate(0,0)"/>
<path d="" fill="#1A90FD" transform="translate(0,0)"/>
<path d="" fill="#218BEE" transform="translate(0,0)"/>
<path d="" fill="#1F8BEF" transform="translate(0,0)"/>
<path d="" fill="#188EFE" transform="translate(0,0)"/>
<path d="" fill="#1E8EFC" transform="translate(0,0)"/>
<path d="" fill="#1A8EFC" transform="translate(0,0)"/>
<path d="" fill="#1F8AEF" transform="translate(0,0)"/>
<path d="" fill="#1C90FC" transform="translate(0,0)"/>
<path d="" fill="#1F8BEC" transform="translate(0,0)"/>
<path d="" fill="#218BEE" transform="translate(0,0)"/>
<path d="" fill="#208BEE" transform="translate(0,0)"/>
<path d="" fill="#1990FF" transform="translate(0,0)"/>
<path d="" fill="#1F8AEE" transform="translate(0,0)"/>
<path d="" fill="#1A8EFA" transform="translate(0,0)"/>
<path d="" fill="#208AEC" transform="translate(0,0)"/>
<path d="" fill="#1A91FE" transform="translate(0,0)"/>
<path d="" fill="#1C8EFE" transform="translate(0,0)"/>
<path d="" fill="#168DFC" transform="translate(0,0)"/>
<path d="" fill="#218AEE" transform="translate(0,0)"/>
<path d="" fill="#198EFD" transform="translate(0,0)"/>
<path d="" fill="#2089EF" transform="translate(0,0)"/>
<path d="" fill="#1990FF" transform="translate(0,0)"/>
<path d="" fill="#1891FD" transform="translate(0,0)"/>
<path d="" fill="#1C8FFD" transform="translate(0,0)"/>
<path d="" fill="#208AEF" transform="translate(0,0)"/>
<path d="" fill="#1A92FF" transform="translate(0,0)"/>
<path d="" fill="#1A90FE" transform="translate(0,0)"/>
<path d="" fill="#218AF0" transform="translate(0,0)"/>
<path d="" fill="#1990FF" transform="translate(0,0)"/>
<path d="" fill="#1990FC" transform="translate(0,0)"/>
<path d="" fill="#1C90FE" transform="translate(0,0)"/>
<path d="" fill="#1C91FF" transform="translate(0,0)"/>
<path d="" fill="#1C8FFE" transform="translate(0,0)"/>
<path d="" fill="#218CED" transform="translate(0,0)"/>
<path d="" fill="#1D8EF4" transform="translate(0,0)"/>
<path d="" fill="#1A91FF" transform="translate(0,0)"/>
<path d="" fill="#1C90FF" transform="translate(0,0)"/>
<path d="" fill="#188FFB" transform="translate(0,0)"/>
<path d="" fill="#1B90FB" transform="translate(0,0)"/>
<path d="" fill="#1F93FF" transform="translate(0,0)"/>
<path d="" fill="#1C8FFB" transform="translate(0,0)"/>
<path d="" fill="#1B8FFD" transform="translate(0,0)"/>
<path d="" fill="#198FFD" transform="translate(0,0)"/>
<path d="" fill="#1C91FD" transform="translate(0,0)"/>
<path d="" fill="#1C91FC" transform="translate(0,0)"/>
<path d="" fill="#1B8EFA" transform="translate(0,0)"/>
<path d="" fill="#1C93FE" transform="translate(0,0)"/>
<path d="" fill="#1B92FB" transform="translate(0,0)"/>
<path d="" fill="#1E93FF" transform="translate(0,0)"/>
<path d="" fill="#1B91FB" transform="translate(0,0)"/>
<path d="" fill="#1D93FF" transform="translate(0,0)"/>
<path d="" fill="#158FFB" transform="translate(0,0)"/>
<path d="" fill="#2389ED" transform="translate(0,0)"/>
<path d="" fill="#198DFF" transform="translate(0,0)"/>
<path d="" fill="#1A92FF" transform="translate(0,0)"/>
<path d="" fill="#2289ED" transform="translate(0,0)"/>
<path d="" fill="#178FFF" transform="translate(0,0)"/>
<path d="" fill="#1A90FC" transform="translate(0,0)"/>
<path d="" fill="#1B90FF" transform="translate(0,0)"/>
<path d="" fill="#1A91FD" transform="translate(0,0)"/>
<path d="" fill="#1A90FD" transform="translate(0,0)"/>
<path d="" fill="#1890FC" transform="translate(0,0)"/>
<path d="" fill="#1B8AF3" transform="translate(0,0)"/>
<path d="" fill="#1F8AF0" transform="translate(0,0)"/>
<path d="" fill="#1B8AF6" transform="translate(0,0)"/>
<path d="" fill="#1889F4" transform="translate(0,0)"/>
<path d="" fill="#1E8AF2" transform="translate(0,0)"/>
<path d="" fill="#1F8AF3" transform="translate(0,0)"/>
<path d="" fill="#1C8CF5" transform="translate(0,0)"/>
<path d="" fill="#1D8CF3" transform="translate(0,0)"/>
<path d="" fill="#1A8CF4" transform="translate(0,0)"/>
<path d="" fill="#1F89F2" transform="translate(0,0)"/>
<path d="" fill="#1F89F1" transform="translate(0,0)"/>
<path d="" fill="#1E8BF1" transform="translate(0,0)"/>
<path d="" fill="#1D89F1" transform="translate(0,0)"/>
<path d="" fill="#1A8BF3" transform="translate(0,0)"/>
<path d="" fill="#1B86F4" transform="translate(0,0)"/>
<path d="" fill="#1B8BF2" transform="translate(0,0)"/>
<path d="" fill="#1B8AF3" transform="translate(0,0)"/>
<path d="" fill="#1C8BF2" transform="translate(0,0)"/>
<path d="" fill="#1B88F3" transform="translate(0,0)"/>
<path d="" fill="#1A8AF3" transform="translate(0,0)"/>
<path d="" fill="#1C8AF2" transform="translate(0,0)"/>
<path d="" fill="#1D8CF3" transform="translate(0,0)"/>
<path d="" fill="#1A88F3" transform="translate(0,0)"/>
<path d="" fill="#1C8AF4" transform="translate(0,0)"/>
<path d="" fill="#1D87F4" transform="translate(0,0)"/>
<path d="" fill="#1A8AF2" transform="translate(0,0)"/>
<path d="" fill="#1989F3" transform="translate(0,0)"/>
<path d="" fill="#1B88F4" transform="translate(0,0)"/>
<path d="" fill="#1D8AF0" transform="translate(0,0)"/>
<path d="" fill="#1E8AEE" transform="translate(0,0)"/>
<path d="" fill="#36373A" transform="translate(0,0)"/>
</svg>
