<svg width="162" height="36" viewBox="0 0 162 36" fill="none" xmlns="http://www.w3.org/2000/svg">
<path fill-rule="evenodd" clip-rule="evenodd" d="M38.3478 4.69565H18C10.6522 4.69565 4.69565 10.6522 4.69565 18C4.69565 25.3478 10.6522 31.3043 18 31.3043H38.3478C45.6956 31.3043 51.6522 25.3478 51.6522 18C51.6522 10.6522 45.6956 4.69565 38.3478 4.69565ZM18 0C8.05888 0 0 8.05887 0 18C0 27.9411 8.05887 36 18 36H38.3478C48.289 36 56.3478 27.9411 56.3478 18C56.3478 8.05887 48.289 0 38.3478 0H18Z" fill="url(#paint0_linear_172_12117)"/>
<path d="M24.2609 17.9999C24.2609 19.7288 22.8593 21.1304 21.1304 21.1304C19.4015 21.1304 18 19.7288 18 17.9999C18 16.2711 19.4015 14.8695 21.1304 14.8695C22.8593 14.8695 24.2609 16.2711 24.2609 17.9999Z" fill="url(#paint1_linear_172_12117)"/>
<path d="M38.3507 17.9999C38.3507 19.7288 36.9492 21.1304 35.2203 21.1304C33.4914 21.1304 32.0898 19.7288 32.0898 17.9999C32.0898 16.2711 33.4914 14.8695 35.2203 14.8695C36.9492 14.8695 38.3507 16.2711 38.3507 17.9999Z" fill="url(#paint2_linear_172_12117)"/>
<path d="M76.9087 30.1579H72.8047L80.951 7.60134H84.9933L93.1395 30.1579H88.9738L87.1533 24.9431H78.7293L76.9087 30.1579ZM82.463 14.3282L79.9018 21.6105H86.0115L83.4195 14.3282C83.2344 13.7419 83.0184 13.0631 82.9567 12.6002C82.8641 13.0322 82.679 13.7111 82.463 14.3282Z" fill="white"/>
<path d="M97.2949 11.8596C95.9989 11.8596 94.9806 10.8413 94.9806 9.57619C94.9806 8.31105 95.9989 7.32362 97.2949 7.32362C98.5292 7.32362 99.5475 8.31105 99.5475 9.57619C99.5475 10.8413 98.5292 11.8596 97.2949 11.8596ZM95.4126 30.1579V14.9145H99.1772V30.1579H95.4126Z" fill="white"/>
<path d="M106.862 30.1579H103.128V7.2002H106.862V30.1579Z" fill="white"/>
<path d="M115.347 30.5591C112.107 30.5591 110.132 28.6768 110.132 25.8071C110.132 22.9991 112.169 21.2402 115.779 20.9625L120.346 20.6231V20.2836C120.346 18.2162 119.112 17.3831 117.198 17.3831C114.977 17.3831 113.742 18.3088 113.742 19.9133H110.533C110.533 16.6116 113.249 14.4516 117.384 14.4516C121.488 14.4516 124.018 16.6733 124.018 20.9008V30.1579H120.716L120.438 27.9053C119.79 29.4791 117.723 30.5591 115.347 30.5591ZM116.581 27.7202C118.896 27.7202 120.377 26.3316 120.377 23.9865V23.1842L117.198 23.4311C114.853 23.6471 113.958 24.4185 113.958 25.6528C113.958 27.0413 114.884 27.7202 116.581 27.7202Z" fill="white"/>
<path d="M131.481 30.1579H127.716V14.9145H131.203L131.512 16.8893C132.468 15.3465 134.32 14.4516 136.387 14.4516C140.213 14.4516 142.188 16.8276 142.188 20.7773V30.1579H138.424V21.6722C138.424 19.1111 137.158 17.8768 135.214 17.8768C132.9 17.8768 131.481 19.4813 131.481 21.9499V30.1579Z" fill="white"/>
<path d="M152.151 30.5591C147.738 30.5591 144.992 27.3191 144.992 22.5979C144.992 17.8459 147.769 14.4516 152.367 14.4516C154.496 14.4516 156.378 15.3465 157.335 16.8585V7.2002H161.069V30.1579H157.613L157.366 27.7819C156.44 29.5408 154.465 30.5591 152.151 30.5591ZM152.984 27.1031C155.607 27.1031 157.304 25.2208 157.304 22.4745C157.304 19.7282 155.607 17.8151 152.984 17.8151C150.361 17.8151 148.757 19.7591 148.757 22.4745C148.757 25.1899 150.361 27.1031 152.984 27.1031Z" fill="white"/>
<defs>
<linearGradient id="paint0_linear_172_12117" x1="54" y1="2.73913" x2="2.85828e-06" y2="31.6957" gradientUnits="userSpaceOnUse">
<stop stop-color="#701EFC"/>
<stop offset="1" stop-color="#CBB3F3"/>
</linearGradient>
<linearGradient id="paint1_linear_172_12117" x1="24.6857" y1="15.4284" x2="17.2028" y2="17.4949" gradientUnits="userSpaceOnUse">
<stop stop-color="#ECE0FF"/>
<stop offset="1" stop-color="#7C3AED"/>
</linearGradient>
<linearGradient id="paint2_linear_172_12117" x1="38.0564" y1="20.057" x2="34.0661" y2="14.4033" gradientUnits="userSpaceOnUse">
<stop stop-color="#7C3AED"/>
<stop offset="1" stop-color="#ECE0FF"/>
</linearGradient>
</defs>
</svg>
